<mxfile host="app.diagrams.net" modified="2022-08-10T19:22:06.586Z" agent="5.0 (Windows NT 10.0; Win64; x64) AppleWebKit/537.36 (KHTML, like Gecko) Chrome/103.0.5060.134 Safari/537.36 Edg/103.0.1264.77" etag="uM0oObeLPHFGlf8mz6-p" version="20.0.3" type="github">
  <diagram id="C5RBs43oDa-KdzZeNtuy" name="Page-1">
    <mxGraphModel dx="1038" dy="1748" grid="1" gridSize="10" guides="1" tooltips="1" connect="1" arrows="1" fold="1" page="1" pageScale="1" pageWidth="827" pageHeight="1169" math="0" shadow="0">
      <root>
        <mxCell id="WIyWlLk6GJQsqaUBKTNV-0" />
        <mxCell id="WIyWlLk6GJQsqaUBKTNV-1" parent="WIyWlLk6GJQsqaUBKTNV-0" />
        <mxCell id="WIyWlLk6GJQsqaUBKTNV-2" value="" style="rounded=0;html=1;jettySize=auto;orthogonalLoop=1;fontSize=11;endArrow=block;endFill=0;endSize=8;strokeWidth=1;shadow=0;labelBackgroundColor=none;edgeStyle=orthogonalEdgeStyle;" parent="WIyWlLk6GJQsqaUBKTNV-1" source="WIyWlLk6GJQsqaUBKTNV-3" target="WIyWlLk6GJQsqaUBKTNV-6" edge="1">
          <mxGeometry relative="1" as="geometry" />
        </mxCell>
        <mxCell id="WIyWlLk6GJQsqaUBKTNV-3" value="Check that &lt;b&gt;&lt;i&gt;Trigger: Object&lt;/i&gt;&lt;/b&gt; is Valid" style="rounded=1;whiteSpace=wrap;html=1;fontSize=12;glass=0;strokeWidth=1;shadow=0;" parent="WIyWlLk6GJQsqaUBKTNV-1" vertex="1">
          <mxGeometry x="160" y="200" width="120" height="40" as="geometry" />
        </mxCell>
        <mxCell id="WIyWlLk6GJQsqaUBKTNV-4" value="Yes" style="rounded=0;html=1;jettySize=auto;orthogonalLoop=1;fontSize=11;endArrow=block;endFill=0;endSize=8;strokeWidth=1;shadow=0;labelBackgroundColor=none;edgeStyle=orthogonalEdgeStyle;" parent="WIyWlLk6GJQsqaUBKTNV-1" source="WIyWlLk6GJQsqaUBKTNV-6" edge="1">
          <mxGeometry y="20" relative="1" as="geometry">
            <mxPoint as="offset" />
            <mxPoint x="220" y="510" as="targetPoint" />
            <Array as="points">
              <mxPoint x="220" y="460" />
              <mxPoint x="220" y="460" />
            </Array>
          </mxGeometry>
        </mxCell>
        <mxCell id="WIyWlLk6GJQsqaUBKTNV-5" value="No" style="edgeStyle=orthogonalEdgeStyle;rounded=0;html=1;jettySize=auto;orthogonalLoop=1;fontSize=11;endArrow=block;endFill=0;endSize=8;strokeWidth=1;shadow=0;labelBackgroundColor=none;startArrow=none;exitX=1;exitY=0.5;exitDx=0;exitDy=0;" parent="WIyWlLk6GJQsqaUBKTNV-1" source="WIyWlLk6GJQsqaUBKTNV-6" target="WIyWlLk6GJQsqaUBKTNV-7" edge="1">
          <mxGeometry y="10" relative="1" as="geometry">
            <mxPoint as="offset" />
            <mxPoint x="480" y="430" as="sourcePoint" />
          </mxGeometry>
        </mxCell>
        <mxCell id="WIyWlLk6GJQsqaUBKTNV-6" value="&lt;b&gt;&lt;i&gt;Trigger: Object&amp;nbsp;&lt;/i&gt;&lt;/b&gt;is valid" style="rhombus;whiteSpace=wrap;html=1;shadow=0;fontFamily=Helvetica;fontSize=12;align=center;strokeWidth=1;spacing=6;spacingTop=-4;" parent="WIyWlLk6GJQsqaUBKTNV-1" vertex="1">
          <mxGeometry x="170" y="310" width="100" height="130" as="geometry" />
        </mxCell>
        <mxCell id="WIyWlLk6GJQsqaUBKTNV-7" value="&lt;div style=&quot;&quot;&gt;&lt;span style=&quot;background-color: initial;&quot;&gt;Terminate&lt;/span&gt;&lt;/div&gt;&lt;div style=&quot;&quot;&gt;&lt;span style=&quot;background-color: initial;&quot;&gt;&lt;br&gt;&lt;/span&gt;&lt;/div&gt;&lt;div style=&quot;&quot;&gt;&lt;span style=&quot;background-color: initial;&quot;&gt;&lt;br&gt;&lt;/span&gt;&lt;/div&gt;&lt;div style=&quot;&quot;&gt;&lt;span style=&quot;background-color: initial;&quot;&gt;&lt;br&gt;&lt;/span&gt;&lt;/div&gt;&lt;div style=&quot;&quot;&gt;&lt;span style=&quot;background-color: initial;&quot;&gt;&lt;br&gt;&lt;/span&gt;&lt;/div&gt;&lt;div style=&quot;&quot;&gt;&lt;span style=&quot;background-color: initial;&quot;&gt;&lt;br&gt;&lt;/span&gt;&lt;/div&gt;&lt;div style=&quot;&quot;&gt;&lt;span style=&quot;background-color: initial;&quot;&gt;&lt;br&gt;&lt;/span&gt;&lt;/div&gt;&lt;div style=&quot;&quot;&gt;&lt;span style=&quot;background-color: initial;&quot;&gt;&lt;br&gt;&lt;/span&gt;&lt;/div&gt;&lt;div style=&quot;&quot;&gt;&lt;span style=&quot;background-color: initial;&quot;&gt;&lt;br&gt;&lt;/span&gt;&lt;/div&gt;" style="rounded=1;whiteSpace=wrap;html=1;fontSize=12;glass=0;strokeWidth=1;shadow=0;align=center;arcSize=21;" parent="WIyWlLk6GJQsqaUBKTNV-1" vertex="1">
          <mxGeometry x="500" y="302.5" width="150" height="145" as="geometry" />
        </mxCell>
        <mxCell id="1xuKd2SJVK0tbqC5xPPG-14" style="edgeStyle=orthogonalEdgeStyle;rounded=1;orthogonalLoop=1;jettySize=auto;html=1;endArrow=block;endFill=0;strokeColor=#000000;" edge="1" parent="WIyWlLk6GJQsqaUBKTNV-1" source="1xuKd2SJVK0tbqC5xPPG-0" target="1xuKd2SJVK0tbqC5xPPG-13">
          <mxGeometry relative="1" as="geometry" />
        </mxCell>
        <mxCell id="1xuKd2SJVK0tbqC5xPPG-0" value="Object" style="shape=parallelogram;perimeter=parallelogramPerimeter;whiteSpace=wrap;html=1;fixedSize=1;" vertex="1" parent="WIyWlLk6GJQsqaUBKTNV-1">
          <mxGeometry x="160" y="-210" width="120" height="60" as="geometry" />
        </mxCell>
        <mxCell id="1xuKd2SJVK0tbqC5xPPG-10" style="edgeStyle=orthogonalEdgeStyle;rounded=1;orthogonalLoop=1;jettySize=auto;html=1;endArrow=block;endFill=0;strokeColor=#000000;" edge="1" parent="WIyWlLk6GJQsqaUBKTNV-1" source="1xuKd2SJVK0tbqC5xPPG-1" target="WIyWlLk6GJQsqaUBKTNV-3">
          <mxGeometry relative="1" as="geometry" />
        </mxCell>
        <mxCell id="1xuKd2SJVK0tbqC5xPPG-1" value="&lt;b&gt;&lt;i&gt;Trigger: Object&lt;/i&gt;&lt;/b&gt; = trim(Object)" style="rounded=0;whiteSpace=wrap;html=1;" vertex="1" parent="WIyWlLk6GJQsqaUBKTNV-1">
          <mxGeometry x="140" y="100" width="160" height="60" as="geometry" />
        </mxCell>
        <mxCell id="1xuKd2SJVK0tbqC5xPPG-11" style="edgeStyle=orthogonalEdgeStyle;rounded=1;orthogonalLoop=1;jettySize=auto;html=1;endArrow=block;endFill=0;strokeColor=#000000;dashed=1;" edge="1" parent="WIyWlLk6GJQsqaUBKTNV-1" source="1xuKd2SJVK0tbqC5xPPG-3" target="WIyWlLk6GJQsqaUBKTNV-3">
          <mxGeometry relative="1" as="geometry" />
        </mxCell>
        <mxCell id="1xuKd2SJVK0tbqC5xPPG-3" value="&lt;b&gt;&lt;i&gt;Trigger: Object&lt;/i&gt;&lt;/b&gt; is valid if it is non-empty, and encapsulated by curly braces.&amp;nbsp;" style="shape=note;whiteSpace=wrap;html=1;backgroundOutline=1;darkOpacity=0.05;" vertex="1" parent="WIyWlLk6GJQsqaUBKTNV-1">
          <mxGeometry y="122.5" width="120" height="180" as="geometry" />
        </mxCell>
        <mxCell id="1xuKd2SJVK0tbqC5xPPG-5" value="Status Code = -1" style="shape=parallelogram;perimeter=parallelogramPerimeter;whiteSpace=wrap;html=1;fixedSize=1;" vertex="1" parent="WIyWlLk6GJQsqaUBKTNV-1">
          <mxGeometry x="510" y="390" width="130" height="40" as="geometry" />
        </mxCell>
        <mxCell id="1xuKd2SJVK0tbqC5xPPG-6" value="Prop Names = [ ]" style="shape=parallelogram;perimeter=parallelogramPerimeter;whiteSpace=wrap;html=1;fixedSize=1;" vertex="1" parent="WIyWlLk6GJQsqaUBKTNV-1">
          <mxGeometry x="510" y="340" width="130" height="40" as="geometry" />
        </mxCell>
        <mxCell id="1xuKd2SJVK0tbqC5xPPG-16" style="edgeStyle=orthogonalEdgeStyle;rounded=1;orthogonalLoop=1;jettySize=auto;html=1;endArrow=block;endFill=0;strokeColor=#000000;" edge="1" parent="WIyWlLk6GJQsqaUBKTNV-1" source="1xuKd2SJVK0tbqC5xPPG-12" target="1xuKd2SJVK0tbqC5xPPG-1">
          <mxGeometry relative="1" as="geometry" />
        </mxCell>
        <mxCell id="1xuKd2SJVK0tbqC5xPPG-12" value="&lt;i style=&quot;font-weight: bold;&quot;&gt;Status Code &lt;/i&gt;= 0" style="rounded=0;whiteSpace=wrap;html=1;" vertex="1" parent="WIyWlLk6GJQsqaUBKTNV-1">
          <mxGeometry x="140" width="160" height="60" as="geometry" />
        </mxCell>
        <mxCell id="1xuKd2SJVK0tbqC5xPPG-15" style="edgeStyle=orthogonalEdgeStyle;rounded=1;orthogonalLoop=1;jettySize=auto;html=1;endArrow=block;endFill=0;strokeColor=#000000;" edge="1" parent="WIyWlLk6GJQsqaUBKTNV-1" source="1xuKd2SJVK0tbqC5xPPG-13" target="1xuKd2SJVK0tbqC5xPPG-12">
          <mxGeometry relative="1" as="geometry" />
        </mxCell>
        <mxCell id="1xuKd2SJVK0tbqC5xPPG-13" value="&lt;b&gt;&lt;i&gt;Prop Names&amp;nbsp;&lt;/i&gt;&lt;/b&gt;= [ ]" style="rounded=0;whiteSpace=wrap;html=1;" vertex="1" parent="WIyWlLk6GJQsqaUBKTNV-1">
          <mxGeometry x="140" y="-100" width="160" height="60" as="geometry" />
        </mxCell>
        <mxCell id="1xuKd2SJVK0tbqC5xPPG-19" style="edgeStyle=orthogonalEdgeStyle;rounded=1;orthogonalLoop=1;jettySize=auto;html=1;endArrow=block;endFill=0;strokeColor=#000000;" edge="1" parent="WIyWlLk6GJQsqaUBKTNV-1" source="1xuKd2SJVK0tbqC5xPPG-17" target="1xuKd2SJVK0tbqC5xPPG-18">
          <mxGeometry relative="1" as="geometry" />
        </mxCell>
        <mxCell id="1xuKd2SJVK0tbqC5xPPG-17" value="Parse JSON: &lt;b&gt;&lt;i&gt;Trigger : Object&lt;/i&gt;&lt;/b&gt;" style="rounded=1;whiteSpace=wrap;html=1;" vertex="1" parent="WIyWlLk6GJQsqaUBKTNV-1">
          <mxGeometry x="170" y="510" width="120" height="60" as="geometry" />
        </mxCell>
        <mxCell id="1xuKd2SJVK0tbqC5xPPG-24" style="edgeStyle=orthogonalEdgeStyle;rounded=1;orthogonalLoop=1;jettySize=auto;html=1;endArrow=block;endFill=0;strokeColor=#000000;" edge="1" parent="WIyWlLk6GJQsqaUBKTNV-1" source="1xuKd2SJVK0tbqC5xPPG-18">
          <mxGeometry relative="1" as="geometry">
            <mxPoint x="230" y="850" as="targetPoint" />
          </mxGeometry>
        </mxCell>
        <mxCell id="1xuKd2SJVK0tbqC5xPPG-18" value="Parse JSON is success" style="rhombus;whiteSpace=wrap;html=1;shadow=0;fontFamily=Helvetica;fontSize=12;align=center;strokeWidth=1;spacing=6;spacingTop=-4;" vertex="1" parent="WIyWlLk6GJQsqaUBKTNV-1">
          <mxGeometry x="180" y="620" width="100" height="130" as="geometry" />
        </mxCell>
        <mxCell id="1xuKd2SJVK0tbqC5xPPG-20" value="No" style="edgeStyle=orthogonalEdgeStyle;rounded=0;html=1;jettySize=auto;orthogonalLoop=1;fontSize=11;endArrow=block;endFill=0;endSize=8;strokeWidth=1;shadow=0;labelBackgroundColor=none;startArrow=none;exitX=1;exitY=0.5;exitDx=0;exitDy=0;" edge="1" parent="WIyWlLk6GJQsqaUBKTNV-1" target="1xuKd2SJVK0tbqC5xPPG-21">
          <mxGeometry y="10" relative="1" as="geometry">
            <mxPoint as="offset" />
            <mxPoint x="280" y="685" as="sourcePoint" />
          </mxGeometry>
        </mxCell>
        <mxCell id="1xuKd2SJVK0tbqC5xPPG-21" value="&lt;div style=&quot;&quot;&gt;&lt;span style=&quot;background-color: initial;&quot;&gt;Terminate&lt;/span&gt;&lt;/div&gt;&lt;div style=&quot;&quot;&gt;&lt;span style=&quot;background-color: initial;&quot;&gt;&lt;br&gt;&lt;/span&gt;&lt;/div&gt;&lt;div style=&quot;&quot;&gt;&lt;span style=&quot;background-color: initial;&quot;&gt;&lt;br&gt;&lt;/span&gt;&lt;/div&gt;&lt;div style=&quot;&quot;&gt;&lt;span style=&quot;background-color: initial;&quot;&gt;&lt;br&gt;&lt;/span&gt;&lt;/div&gt;&lt;div style=&quot;&quot;&gt;&lt;span style=&quot;background-color: initial;&quot;&gt;&lt;br&gt;&lt;/span&gt;&lt;/div&gt;&lt;div style=&quot;&quot;&gt;&lt;span style=&quot;background-color: initial;&quot;&gt;&lt;br&gt;&lt;/span&gt;&lt;/div&gt;&lt;div style=&quot;&quot;&gt;&lt;span style=&quot;background-color: initial;&quot;&gt;&lt;br&gt;&lt;/span&gt;&lt;/div&gt;&lt;div style=&quot;&quot;&gt;&lt;span style=&quot;background-color: initial;&quot;&gt;&lt;br&gt;&lt;/span&gt;&lt;/div&gt;&lt;div style=&quot;&quot;&gt;&lt;span style=&quot;background-color: initial;&quot;&gt;&lt;br&gt;&lt;/span&gt;&lt;/div&gt;" style="rounded=1;whiteSpace=wrap;html=1;fontSize=12;glass=0;strokeWidth=1;shadow=0;align=center;arcSize=21;" vertex="1" parent="WIyWlLk6GJQsqaUBKTNV-1">
          <mxGeometry x="510" y="612.5" width="150" height="145" as="geometry" />
        </mxCell>
        <mxCell id="1xuKd2SJVK0tbqC5xPPG-22" value="Status Code = -1" style="shape=parallelogram;perimeter=parallelogramPerimeter;whiteSpace=wrap;html=1;fixedSize=1;" vertex="1" parent="WIyWlLk6GJQsqaUBKTNV-1">
          <mxGeometry x="520" y="700" width="130" height="40" as="geometry" />
        </mxCell>
        <mxCell id="1xuKd2SJVK0tbqC5xPPG-23" value="Prop Names = [ ]" style="shape=parallelogram;perimeter=parallelogramPerimeter;whiteSpace=wrap;html=1;fixedSize=1;" vertex="1" parent="WIyWlLk6GJQsqaUBKTNV-1">
          <mxGeometry x="520" y="650" width="130" height="40" as="geometry" />
        </mxCell>
        <mxCell id="1xuKd2SJVK0tbqC5xPPG-25" value="Yes" style="text;html=1;align=center;verticalAlign=middle;resizable=0;points=[];autosize=1;strokeColor=none;fillColor=none;" vertex="1" parent="WIyWlLk6GJQsqaUBKTNV-1">
          <mxGeometry x="230" y="775" width="40" height="30" as="geometry" />
        </mxCell>
        <mxCell id="1xuKd2SJVK0tbqC5xPPG-27" style="edgeStyle=orthogonalEdgeStyle;rounded=1;orthogonalLoop=1;jettySize=auto;html=1;endArrow=block;endFill=0;strokeColor=#000000;" edge="1" parent="WIyWlLk6GJQsqaUBKTNV-1" source="1xuKd2SJVK0tbqC5xPPG-26" target="1xuKd2SJVK0tbqC5xPPG-28">
          <mxGeometry relative="1" as="geometry">
            <mxPoint x="240" y="960" as="targetPoint" />
          </mxGeometry>
        </mxCell>
        <mxCell id="1xuKd2SJVK0tbqC5xPPG-26" value="Remove Embedded Objects from &lt;b&gt;&lt;i&gt;Trigger: Object&lt;/i&gt;&lt;/b&gt;" style="rounded=1;whiteSpace=wrap;html=1;" vertex="1" parent="WIyWlLk6GJQsqaUBKTNV-1">
          <mxGeometry x="180" y="850" width="120" height="60" as="geometry" />
        </mxCell>
        <mxCell id="1xuKd2SJVK0tbqC5xPPG-31" style="edgeStyle=orthogonalEdgeStyle;rounded=1;orthogonalLoop=1;jettySize=auto;html=1;endArrow=block;endFill=0;strokeColor=#000000;" edge="1" parent="WIyWlLk6GJQsqaUBKTNV-1" source="1xuKd2SJVK0tbqC5xPPG-28" target="1xuKd2SJVK0tbqC5xPPG-30">
          <mxGeometry relative="1" as="geometry" />
        </mxCell>
        <mxCell id="1xuKd2SJVK0tbqC5xPPG-28" value="Remove Embedded Arrays from &lt;b&gt;&lt;i&gt;Trigger: Object&lt;/i&gt;&lt;/b&gt;" style="rounded=1;whiteSpace=wrap;html=1;" vertex="1" parent="WIyWlLk6GJQsqaUBKTNV-1">
          <mxGeometry x="180" y="960" width="120" height="60" as="geometry" />
        </mxCell>
        <mxCell id="1xuKd2SJVK0tbqC5xPPG-35" style="edgeStyle=orthogonalEdgeStyle;rounded=1;orthogonalLoop=1;jettySize=auto;html=1;endArrow=block;endFill=0;strokeColor=#000000;" edge="1" parent="WIyWlLk6GJQsqaUBKTNV-1" source="1xuKd2SJVK0tbqC5xPPG-30" target="1xuKd2SJVK0tbqC5xPPG-33">
          <mxGeometry relative="1" as="geometry" />
        </mxCell>
        <mxCell id="1xuKd2SJVK0tbqC5xPPG-30" value="Isolate Property Names from Property Values" style="rounded=1;whiteSpace=wrap;html=1;" vertex="1" parent="WIyWlLk6GJQsqaUBKTNV-1">
          <mxGeometry x="180" y="1060" width="120" height="60" as="geometry" />
        </mxCell>
        <mxCell id="1xuKd2SJVK0tbqC5xPPG-36" style="edgeStyle=orthogonalEdgeStyle;rounded=1;orthogonalLoop=1;jettySize=auto;html=1;endArrow=block;endFill=0;strokeColor=#000000;" edge="1" parent="WIyWlLk6GJQsqaUBKTNV-1" source="1xuKd2SJVK0tbqC5xPPG-33" target="1xuKd2SJVK0tbqC5xPPG-34">
          <mxGeometry relative="1" as="geometry" />
        </mxCell>
        <mxCell id="1xuKd2SJVK0tbqC5xPPG-33" value="&lt;i style=&quot;font-weight: bold;&quot;&gt;Prop Names &lt;/i&gt;= Property Names" style="rounded=0;whiteSpace=wrap;html=1;" vertex="1" parent="WIyWlLk6GJQsqaUBKTNV-1">
          <mxGeometry x="180" y="1150" width="120" height="60" as="geometry" />
        </mxCell>
        <mxCell id="1xuKd2SJVK0tbqC5xPPG-38" style="edgeStyle=orthogonalEdgeStyle;rounded=1;orthogonalLoop=1;jettySize=auto;html=1;endArrow=block;endFill=0;strokeColor=#000000;" edge="1" parent="WIyWlLk6GJQsqaUBKTNV-1" source="1xuKd2SJVK0tbqC5xPPG-34" target="1xuKd2SJVK0tbqC5xPPG-37">
          <mxGeometry relative="1" as="geometry" />
        </mxCell>
        <mxCell id="1xuKd2SJVK0tbqC5xPPG-34" value="&lt;b&gt;&lt;i&gt;Status Code&amp;nbsp;&lt;/i&gt;&lt;/b&gt;= 0" style="rounded=0;whiteSpace=wrap;html=1;" vertex="1" parent="WIyWlLk6GJQsqaUBKTNV-1">
          <mxGeometry x="180" y="1250" width="120" height="60" as="geometry" />
        </mxCell>
        <mxCell id="1xuKd2SJVK0tbqC5xPPG-37" value="Terminate" style="rounded=1;whiteSpace=wrap;html=1;" vertex="1" parent="WIyWlLk6GJQsqaUBKTNV-1">
          <mxGeometry x="180" y="1340" width="120" height="60" as="geometry" />
        </mxCell>
      </root>
    </mxGraphModel>
  </diagram>
</mxfile>
